<svg id="a1917fe9-8985-4a51-9575-69090d8cc3fd" data-name="Livello 1" xmlns="http://www.w3.org/2000/svg" viewBox="0 0 294 145"><defs><style>.f3545f89-db0b-4518-bcfc-cd2b89072b83{fill:#eef4ef;}.f09c6f9b-675e-4f63-bae6-2fba0911366e{fill:#d2ebd7;}.a2716c5d-638c-4a80-aeb8-72b47b8704c5{fill:#297a38;}.a1115bbe-2443-4ad5-92cf-80916aae2ae0{fill:none;stroke:#000;stroke-width:2.52px;}</style></defs><title>info-1</title><g id="aa3d01f8-9727-4e22-afd6-e9e65a5783eb" data-name="Symbols"><g id="baf8b497-4195-4d2d-9fd6-54b17abc5231" data-name="Artboard"><ellipse class="f3545f89-db0b-4518-bcfc-cd2b89072b83" cx="70.72" cy="68.08" rx="63.05" ry="63.04"/><g id="b15c4765-ee1f-4132-aa3f-ab8198b71ae1" data-name="Group-14"><g id="e8c0cdaa-0bb9-4e9a-93a4-0a3b56ee4247" data-name="Group-10"><rect class="f09c6f9b-675e-4f63-bae6-2fba0911366e" x="36.67" y="52.95" width="105.92" height="79.43" rx="2.52"/><path d="M123.67,76.27H66.93a1.26,1.26,0,0,1,0-2.52h56.74a1.26,1.26,0,0,1,0,2.52Z"/><path d="M114.85,81.32H74.5a1.26,1.26,0,0,1,0-2.52h40.35a1.26,1.26,0,0,1,0,2.52Z"/><path d="M111.06,71.23H78.28a1.26,1.26,0,0,1,0-2.52h32.78a1.26,1.26,0,1,1,0,2.52Z"/><path d="M79.54,109.05H60.63a1.26,1.26,0,0,1,0-2.52H79.54a1.26,1.26,0,0,1,0,2.52Z"/><path d="M75.76,112.83H64.41a1.26,1.26,0,1,1,0-2.52H75.76a1.26,1.26,0,1,1,0,2.52Z"/><path d="M146.37,128.59H45.5a3.72,3.72,0,0,1-3.79-3.78V50.43a3.72,3.72,0,0,1,3.79-3.78H146.37a3.71,3.71,0,0,1,3.78,3.78v74.38A3.71,3.71,0,0,1,146.37,128.59ZM45.5,49.17a1.19,1.19,0,0,0-1.26,1.26v74.38a1.19,1.19,0,0,0,1.26,1.26H146.37a1.19,1.19,0,0,0,1.26-1.26V50.43a1.19,1.19,0,0,0-1.26-1.26Z"/><path d="M147.63,58.62H43a1.26,1.26,0,1,1,0-2.52H147.63a1.26,1.26,0,0,1,0,2.52Z"/><circle cx="48.52" cy="53.08" r="1.64"/><circle cx="54.58" cy="53.08" r="1.64"/><circle cx="60.5" cy="53.08" r="1.64"/><path d="M103.5,109.05H85.85a1.26,1.26,0,1,1,0-2.52H103.5a1.26,1.26,0,0,1,0,2.52Z"/><path d="M99.72,112.83H89.63a1.26,1.26,0,1,1,0-2.52H99.72a1.26,1.26,0,1,1,0,2.52Z"/><path d="M127.46,109.05H109.8a1.26,1.26,0,0,1,0-2.52h17.66a1.26,1.26,0,1,1,0,2.52Z"/><path d="M124.93,112.83H113.59a1.26,1.26,0,1,1,0-2.52h11.34a1.26,1.26,0,1,1,0,2.52Z"/><circle class="a2716c5d-638c-4a80-aeb8-72b47b8704c5" cx="71.3" cy="90.14" r="4.41"/><path class="a2716c5d-638c-4a80-aeb8-72b47b8704c5" d="M65.1,104.53c-1.23,0-2.3-.84-1.91-2.16a8.29,8.29,0,0,1,16.22,0c.4,1.32-.68,2.16-1.92,2.16-1.7,0-4.33.11-6.18.11S67,104.53,65.1,104.53Z"/><g id="b13f5c50-7221-4845-bf3e-e24edfb82eea" data-name="Group-9"><g id="f393840b-03bf-42fe-977d-a07440399459" data-name="Group-7"><g id="f543f20c-7898-498a-b132-4196f909e3c1" data-name="Group-6"><circle cx="18.34" cy="39.71" r="4.41"/><path d="M12.14,54.11c-1.23,0-2.3-.85-1.91-2.17a8.7,8.7,0,0,1,8.11-6.55,8.71,8.71,0,0,1,8.12,6.55c.39,1.32-.69,2.17-1.93,2.17-1.7,0-4.33.1-6.18.1S14,54.11,12.14,54.11Z"/></g><circle class="a1115bbe-2443-4ad5-92cf-80916aae2ae0" cx="17.76" cy="45.39" r="15.13"/></g><g id="f91bd069-ae02-46bf-b6bc-86642573fa48" data-name="Group-8"><path d="M6.27,64.6a1.09,1.09,0,0,0-1.52,0L3.35,66,2,64.6a1.11,1.11,0,0,0-1.52,0,1,1,0,0,0,0,1.48l1.4,1.35L.43,68.8a1,1,0,0,0-.29,1,1.08,1.08,0,0,0,.77.75,1.14,1.14,0,0,0,1-.29l1.39-1.35,1.4,1.35a1.09,1.09,0,0,0,1.51,0,1,1,0,0,0,0-1.47L4.88,67.44l1.39-1.35a1,1,0,0,0,0-1.49Z"/><path d="M16,64.6a1.09,1.09,0,0,0-1.52,0L13.07,66,11.68,64.6a1.1,1.1,0,0,0-1.51,0,1,1,0,0,0,0,1.48l1.39,1.35L10.16,68.8a1,1,0,0,0-.29,1,1.08,1.08,0,0,0,.76.75,1.12,1.12,0,0,0,1-.29l1.39-1.35,1.4,1.35a1.11,1.11,0,0,0,1,.29,1.08,1.08,0,0,0,.77-.75,1,1,0,0,0-.29-1L14.6,67.44,16,66.09A1,1,0,0,0,16,64.6Z"/><path d="M25.72,64.6a1.11,1.11,0,0,0-1.53,0L22.8,66,21.41,64.6a1.11,1.11,0,0,0-1.52,0,1,1,0,0,0,0,1.48l1.4,1.35-1.4,1.36a1.07,1.07,0,0,0-.29,1,1.1,1.1,0,0,0,.77.75,1.12,1.12,0,0,0,1.05-.29l1.39-1.35,1.39,1.35a1.12,1.12,0,0,0,1,.29,1.08,1.08,0,0,0,.77-.75,1,1,0,0,0-.29-1l-1.4-1.36,1.4-1.35A1,1,0,0,0,25.72,64.6Z"/><path d="M34.07,67.44l1.39-1.36a1,1,0,0,0,0-1.48,1.1,1.1,0,0,0-1.52,0L32.54,66l-1.4-1.35a1.1,1.1,0,0,0-1.52,0,1,1,0,0,0,0,1.48L31,67.44l-1.4,1.36a1,1,0,0,0-.29,1,1.08,1.08,0,0,0,.77.75,1.12,1.12,0,0,0,1.05-.29l1.4-1.36,1.39,1.36a1.1,1.1,0,0,0,1.52,0,1,1,0,0,0,0-1.47Z"/><path d="M5.51,74.38H1.18C.59,74.38.1,74.66.1,75s.49.63,1.08.63H5.51c.6,0,1.08-.28,1.08-.63S6.11,74.38,5.51,74.38Z"/><path d="M15.24,74.38H10.91c-.59,0-1.08.28-1.08.63s.49.63,1.08.63h4.33c.59,0,1.08-.28,1.08-.63S15.83,74.38,15.24,74.38Z"/><path d="M25,74.38H20.64c-.6,0-1.08.28-1.08.63s.48.63,1.08.63H25c.6,0,1.08-.28,1.08-.63S25.56,74.38,25,74.38Z"/><path d="M34.69,74.38H30.37c-.6,0-1.08.28-1.08.63s.48.63,1.08.63h4.32c.6,0,1.08-.28,1.08-.63S35.29,74.38,34.69,74.38Z"/></g></g><g id="bf312b31-702d-4465-bd08-d446540c3522" data-name="Group-6-Copy"><circle class="a2716c5d-638c-4a80-aeb8-72b47b8704c5" cx="95.26" cy="90.14" r="4.41"/><path class="a2716c5d-638c-4a80-aeb8-72b47b8704c5" d="M89.06,104.53c-1.23,0-2.31-.84-1.92-2.16a8.3,8.3,0,0,1,16.23,0c.4,1.32-.69,2.16-1.92,2.16-1.7,0-4.34.11-6.19.11S90.93,104.53,89.06,104.53Z"/></g><g id="b1b68573-6822-4db7-bfc7-30c3383a9248" data-name="Group-6-Copy-2"><circle class="a2716c5d-638c-4a80-aeb8-72b47b8704c5" cx="119.22" cy="90.14" r="4.41"/><path class="a2716c5d-638c-4a80-aeb8-72b47b8704c5" d="M113,104.53c-1.24,0-2.31-.84-1.92-2.16a8.3,8.3,0,0,1,16.23,0c.39,1.32-.69,2.16-1.92,2.16-1.7,0-4.34.11-6.19.11S114.88,104.53,113,104.53Z"/></g><g id="f9bb2136-2bd4-4582-bf65-c8f32ccfeda9" data-name="Group-3"><path d="M163,105.14H150.28v-3.27a4.65,4.65,0,0,1,4.66-4.67h1.64a4.74,4.74,0,0,1,4.29,2.78,1.24,1.24,0,1,0,2.27-1,7.14,7.14,0,0,0-6.56-4.42h-1.64a7.19,7.19,0,0,0-7.18,7.19v3.4a6.36,6.36,0,0,0-5.17,6.18v14a6.24,6.24,0,0,0,6.3,6.3h14a6.24,6.24,0,0,0,6.3-6.3V111.45A6.14,6.14,0,0,0,163,105.14Z"/><path class="f09c6f9b-675e-4f63-bae6-2fba0911366e" d="M166.8,125.44a3.72,3.72,0,0,1-3.79,3.78H148.89a3.71,3.71,0,0,1-3.78-3.78v-14a3.71,3.71,0,0,1,3.78-3.78h14a3.71,3.71,0,0,1,3.78,3.78v14Z"/><path d="M157.84,116.36a2,2,0,0,1-.63,1.39v2.9a1.26,1.26,0,0,1-2.52,0v-2.9a2,2,0,0,1-.63-1.39,1.89,1.89,0,0,1,3.78,0Z"/></g></g></g><circle id="fc515b2d-018b-46b6-9066-46b65294b6ba" data-name="Oval-Copy-17" class="f3545f89-db0b-4518-bcfc-cd2b89072b83" cx="171.58" cy="60" r="13"/><circle id="b6e3bbe0-8a01-4065-9d99-21a5c112cf76" data-name="Oval-Copy-14" class="f3545f89-db0b-4518-bcfc-cd2b89072b83" cx="210.58" cy="81" r="13"/><circle id="b053cbf8-f4f5-44a7-9661-ba4fdf9e48e1" data-name="Oval-Copy-13" class="f3545f89-db0b-4518-bcfc-cd2b89072b83" cx="264.1" cy="67" r="16"/></g></g></svg>