<svg id="bf04ad03-1751-4a26-b1ba-4103cb95ce77" data-name="Livello 1" xmlns="http://www.w3.org/2000/svg" viewBox="0 0 294 145"><defs><style>.ee9a5701-e5db-44a8-b7a8-07de9d5f4419{fill:#eef4ef;}.ac127ae9-4f55-4374-b537-738df278f540,.aeabba7d-a75d-40a2-b32c-c3ebc0867531{fill:#d2ebd7;}.a08db5c3-a9f1-46b0-80b1-f56a977cd811{fill:none;stroke:#000;stroke-linecap:square;stroke-width:2.52px;}.ed165e1d-42fb-4cb1-a83a-5a7402622f3e,.ef195b5d-1bc0-4bb7-bd47-2a12103a8883{fill:#297a38;}.aeabba7d-a75d-40a2-b32c-c3ebc0867531,.ef195b5d-1bc0-4bb7-bd47-2a12103a8883{fill-rule:evenodd;}</style></defs><title>info-3</title><g id="e3ad855a-0726-4891-a10f-d9067b6f205b" data-name="Symbols"><g id="a374c46e-874d-4dd0-abf6-9535f551f389" data-name="Artboard"><ellipse id="af52a9f1-5767-4c54-a9c0-a3d99a41fc31" data-name="Oval-Copy" class="ee9a5701-e5db-44a8-b7a8-07de9d5f4419" cx="176.55" cy="63.04" rx="63.06" ry="63.04"/><g id="a5c0f09c-da0f-4aaf-aba3-2808c5bdac34" data-name="Group-18"><rect id="fc00fa96-b25c-4826-8737-d7db57ffc952" data-name="Rectangle" class="ac127ae9-4f55-4374-b537-738df278f540" x="90.79" y="52.95" width="105.94" height="79.43" rx="2.52"/><g id="a986b11d-96a6-49e8-9a63-a5ea1908f0de" data-name="Group-3-Copy-2"><path id="b817c021-b7c7-4c9e-ae73-5f6a5cee4b88" data-name="Shape" d="M199.25,128.59H98.36a3.72,3.72,0,0,1-3.79-3.78V50.43a3.72,3.72,0,0,1,3.79-3.78H199.25A3.71,3.71,0,0,1,203,50.43v74.38A3.71,3.71,0,0,1,199.25,128.59ZM98.36,49.17a1.19,1.19,0,0,0-1.26,1.26v74.38a1.19,1.19,0,0,0,1.26,1.26H199.25a1.19,1.19,0,0,0,1.26-1.26V50.43a1.19,1.19,0,0,0-1.26-1.26Z"/><path id="a927746f-170b-48c2-9dfe-8a770e164a2e" data-name="Path" d="M200.51,58.62H95.83a1.26,1.26,0,0,1,0-2.52H200.51a1.26,1.26,0,1,1,0,2.52Z"/><circle id="ff90a270-6cbf-4d09-a92b-ed43a7e07661" data-name="Oval" cx="101.38" cy="53.08" r="1.64"/><circle cx="107.44" cy="53.08" r="1.64"/><circle cx="113.36" cy="53.08" r="1.64"/></g><path id="abbe479c-0b06-472e-8d26-b443c0544d76" data-name="Line" class="a08db5c3-a9f1-46b0-80b1-f56a977cd811" d="M119.8,58v68.62"/><path d="M112.23,82H102.14a1.26,1.26,0,0,1-1.26-1.26V71.86a1.26,1.26,0,0,1,1.26-1.26h10.09a1.26,1.26,0,0,1,1.26,1.26v8.83A1.26,1.26,0,0,1,112.23,82Zm-8.83-2.52H111V73.12H103.4Z"/><path d="M112.23,98.34H102.14a1.26,1.26,0,0,1-1.26-1.26V88.25A1.25,1.25,0,0,1,102.14,87h10.09a1.25,1.25,0,0,1,1.26,1.26v8.83A1.26,1.26,0,0,1,112.23,98.34Zm-8.83-2.53H111v-6.3H103.4Z"/><path d="M112.23,114.73H102.14a1.26,1.26,0,0,1-1.26-1.27v-8.82a1.25,1.25,0,0,1,1.26-1.26h10.09a1.25,1.25,0,0,1,1.26,1.26v8.82A1.26,1.26,0,0,1,112.23,114.73Zm-8.83-2.53H111v-6.3H103.4Z"/><g id="b8c8cd01-48ee-4213-a4ca-738804631470" data-name="Group-17"><path class="ed165e1d-42fb-4cb1-a83a-5a7402622f3e" d="M195.54,85.73H134.86a1.18,1.18,0,0,1-1.19-1.18V69.26a1.18,1.18,0,0,1,1.19-1.18h60.68a1.18,1.18,0,0,1,1.19,1.18V84.55A1.18,1.18,0,0,1,195.54,85.73Z"/><path d="M194.21,89.51H129.89a1.25,1.25,0,0,1-1.26-1.26V71.86a1.26,1.26,0,0,1,1.26-1.26h64.32a1.27,1.27,0,0,1,1.26,1.26V88.25A1.26,1.26,0,0,1,194.21,89.51ZM131.15,87h61.79V73.12H131.15Z"/><path d="M167.72,82H141.24a1.26,1.26,0,0,1,0-2.52h26.48a1.26,1.26,0,1,1,0,2.52Z"/><path d="M180.33,82h-5a1.26,1.26,0,1,1,0-2.52h5a1.26,1.26,0,1,1,0,2.52Z"/></g><g id="a6829340-d0d2-4a12-8bce-ad834ea5efb1" data-name="Group-16"><path id="afab8814-37f9-4d38-88cc-af893a61968a" data-name="Shape-Copy" class="ed165e1d-42fb-4cb1-a83a-5a7402622f3e" d="M195.54,113.46H134.86a1.18,1.18,0,0,1-1.19-1.17V97a1.18,1.18,0,0,1,1.19-1.18h60.68A1.18,1.18,0,0,1,196.73,97v15.3A1.18,1.18,0,0,1,195.54,113.46Z"/><path id="ae78e079-5e4d-4154-a9e1-f71426f956fd" data-name="Shape-Copy-2" d="M194.21,117.25H129.89a1.26,1.26,0,0,1-1.26-1.26V99.6a1.25,1.25,0,0,1,1.26-1.26h64.32a1.26,1.26,0,0,1,1.26,1.26V116A1.27,1.27,0,0,1,194.21,117.25Zm-63.06-2.52h61.79V100.86H131.15Z"/><path id="b74ed02b-4cfb-4efd-b59a-b68425ae19d6" data-name="Path-Copy" d="M167.72,109.68H141.24a1.26,1.26,0,0,1,0-2.52h26.48a1.26,1.26,0,0,1,0,2.52Z"/><path id="fd09a056-83fb-4de4-abb4-f4500c735363" data-name="Path-Copy-2" d="M180.33,109.68h-5a1.26,1.26,0,1,1,0-2.52h5a1.26,1.26,0,0,1,0,2.52Z"/></g><path class="aeabba7d-a75d-40a2-b32c-c3ebc0867531" d="M195.47,84.47h28.76l14.12,13.34v38.35a5,5,0,0,1-5,5H195.47a5,5,0,0,1-5.05-5V89.51A5,5,0,0,1,195.47,84.47Z"/><path class="ef195b5d-1bc0-4bb7-bd47-2a12103a8883" d="M225.74,88.25l16.39,16.39H230.78a5,5,0,0,1-5-5Z"/><g id="b1f2cf60-31c5-4996-ba5b-3a44bb4ca4c7" data-name="Group-15"><path d="M241.89,103.38H231.18a5.76,5.76,0,0,1-5.68-5.75V87h2.14V97.63a3.59,3.59,0,0,0,3.54,3.58h10.71Z"/><path d="M237.39,145h-39a5.66,5.66,0,0,1-5.65-5.6v-48a5.66,5.66,0,0,1,5.65-5.6h27a5.81,5.81,0,0,1,4,1.69l12.06,11.93a5.78,5.78,0,0,1,1.7,4v36A5.82,5.82,0,0,1,237.39,145Zm-39-57.24a3.53,3.53,0,0,0-3.52,3.48v47.95a3.54,3.54,0,0,0,3.52,3.49h39a3.54,3.54,0,0,0,3.52-3.49V103.26a3.43,3.43,0,0,0-1.06-2.53L227.79,88.79a3.71,3.71,0,0,0-2.55-1.05Z"/><path d="M232,108.42H203.84c-.63,0-1-.5-1-1.26s.41-1.26,1-1.26H232c.63,0,1,.5,1,1.26S232.65,108.42,232,108.42Z"/><path d="M232,116H203.84c-.63,0-1-.51-1-1.26s.41-1.27,1-1.27H232c.63,0,1,.51,1,1.27S232.65,116,232,116Z"/><path d="M232,124.81H203.84c-.63,0-1-.5-1-1.26s.41-1.26,1-1.26H232c.63,0,1,.5,1,1.26S232.65,124.81,232,124.81Z"/><path d="M232,132.38H203.84c-.63,0-1-.51-1-1.27s.41-1.26,1-1.26H232c.63,0,1,.51,1,1.26S232.65,132.38,232,132.38Z"/></g><g id="be747856-2fe9-4e47-835d-0b21bcc3d138" data-name="Group"><path d="M221,44.92h-7.61a4.44,4.44,0,0,0-4.43,4.42V72a4.43,4.43,0,0,0,4.43,4.41h23.93A4.42,4.42,0,0,0,241.7,72V64.84a1,1,0,0,0-2.07,0V72a2.39,2.39,0,0,1-2.36,2.4H213.34A2.39,2.39,0,0,1,211,72V49.34a2.39,2.39,0,0,1,2.37-2.4H221a1,1,0,1,0,0-2Z"/><path d="M221.81,63.53a1,1,0,0,0,.7.31.8.8,0,0,0,.27,0L229.15,62a3.46,3.46,0,0,0,1.52-.89l14.72-14.63a4.68,4.68,0,0,0,0-6.58,4.49,4.49,0,0,0-6.34,0L224.24,54.66a3.65,3.65,0,0,0-.91,1.57l-1.77,6.31A1,1,0,0,0,221.81,63.53Zm18.83-15.15L237,44.78l1.68-1.67,3.61,3.6Zm1.58-7.73a2.52,2.52,0,0,1,1.77.72,2.61,2.61,0,0,1,0,3.68l-.24.24-3.61-3.6.3-.31A2.53,2.53,0,0,1,242.22,40.65Zm-17,16.13a1.78,1.78,0,0,1,.39-.68l10-9.91,3.61,3.6-9.94,9.9a1.64,1.64,0,0,1-.65.38L224,61.36Z"/></g></g><circle id="beeb08a4-bf79-4729-82c7-ce82b2499e07" data-name="Oval-Copy-21" class="ee9a5701-e5db-44a8-b7a8-07de9d5f4419" cx="276" cy="44" r="13"/><circle id="ee626380-32b9-4706-96f9-ad820281908f" data-name="Oval-Copy-20" class="ee9a5701-e5db-44a8-b7a8-07de9d5f4419" cx="50" cy="97" r="16"/></g></g></svg>