<svg id="e6883655-5b35-40ab-b4b3-a81584a51a0d" data-name="Livello 1" xmlns="http://www.w3.org/2000/svg" viewBox="0 0 294 145"><defs><style>.b8328d6d-2e5f-422d-848b-b1f2f0001ae2{fill:#eef4ef;}.e0dac7a4-8910-41f4-81da-8afc3bd7ed80{fill:#d2ebd7;}.f0d4b75f-8cc7-4cc4-8380-80652d7150ba{fill:#297a38;}.e91e0b52-8275-4235-9f28-e082dd9200ef{stroke:#000;stroke-width:0.95px;}.e88a9a3b-440c-454b-922c-b6675052c21d{fill:#fff;stroke:#fff;stroke-width:1.26px;}</style></defs><title>info-4</title><g id="f8992476-8c8f-41ad-b1a2-3d1882561527" data-name="Symbols"><g id="a1843407-951c-48c0-a729-aeb9808c4f5b" data-name="Artboard"><g id="a3b1fe0b-f025-48aa-91b2-d31e8ddca6b7" data-name="Group-21"><ellipse class="b8328d6d-2e5f-422d-848b-b1f2f0001ae2" cx="227.8" cy="63.04" rx="63.1" ry="63.04"/><rect class="e0dac7a4-8910-41f4-81da-8afc3bd7ed80" x="141.99" y="52.95" width="106" height="79.43" rx="2.52"/><path d="M250.51,128.59H149.56a3.72,3.72,0,0,1-3.79-3.78V50.43a3.72,3.72,0,0,1,3.79-3.78H250.51a3.72,3.72,0,0,1,3.79,3.78v74.38A3.72,3.72,0,0,1,250.51,128.59ZM149.56,49.17a1.19,1.19,0,0,0-1.26,1.26v74.38a1.19,1.19,0,0,0,1.26,1.26H250.51a1.19,1.19,0,0,0,1.27-1.26V50.43a1.19,1.19,0,0,0-1.27-1.26Z"/><path d="M252.66,59.38H147.41a1.26,1.26,0,1,1,0-2.52H252.79a1.19,1.19,0,0,1,1.26,1.26A1.29,1.29,0,0,1,252.66,59.38Z"/><circle cx="152.59" cy="53.08" r="1.64"/><circle cx="158.64" cy="53.08" r="1.64"/><circle cx="164.57" cy="53.08" r="1.64"/><path class="f0d4b75f-8cc7-4cc4-8380-80652d7150ba" d="M160.79,115.86a6.6,6.6,0,0,1-6.56-6.56,6.56,6.56,0,0,1,13.12,0A6.6,6.6,0,0,1,160.79,115.86Z"/><path d="M162.05,117.12a6.59,6.59,0,0,1-6.56-6.55,6.56,6.56,0,0,1,13.12,0A6.59,6.59,0,0,1,162.05,117.12Zm0-10.72a4.07,4.07,0,0,0-4,4,4,4,0,0,0,8.08,0A4.07,4.07,0,0,0,162.05,106.4Z"/><path class="f0d4b75f-8cc7-4cc4-8380-80652d7150ba" d="M177.57,91.28A6.6,6.6,0,0,1,171,84.72a6.57,6.57,0,0,1,13.13,0A6.6,6.6,0,0,1,177.57,91.28Z"/><path d="M179.21,92a6.59,6.59,0,0,1-6.56-6.55,6.57,6.57,0,0,1,13.13,0A6.6,6.6,0,0,1,179.21,92Zm0-10.71a4.06,4.06,0,0,0-4,4,4,4,0,1,0,8.07,0A4.06,4.06,0,0,0,179.21,81.32Z"/><path class="f0d4b75f-8cc7-4cc4-8380-80652d7150ba" d="M197.76,110.19a6.6,6.6,0,0,1-6.56-6.56,6.57,6.57,0,0,1,13.13,0A6.6,6.6,0,0,1,197.76,110.19Z"/><path class="f0d4b75f-8cc7-4cc4-8380-80652d7150ba" d="M223,78.67a6.6,6.6,0,0,1-6.56-6.56,6.57,6.57,0,0,1,13.13,0A6.6,6.6,0,0,1,223,78.67Z"/><path d="M199.15,109.18a6.6,6.6,0,0,1-6.56-6.56,6.56,6.56,0,0,1,13.12,0A6.6,6.6,0,0,1,199.15,109.18Zm0-10.72a4.07,4.07,0,0,0-4,4,4.15,4.15,0,0,0,4,4,4,4,0,1,0,0-8.07Z"/><path d="M224.27,80.06a6.6,6.6,0,0,1-6.57-6.56,6.57,6.57,0,0,1,13.13,0A6.6,6.6,0,0,1,224.27,80.06Zm0-10.72a4.06,4.06,0,0,0-4,4,4,4,0,1,0,8.07,0A4.06,4.06,0,0,0,224.27,69.34Z"/><path d="M202.56,99.85a2.44,2.44,0,0,1-.88-.25,1.23,1.23,0,0,1-.13-1.77l18.17-21a1.25,1.25,0,1,1,1.89,1.64l-18,20.92A1.15,1.15,0,0,1,202.56,99.85Z"/><path d="M194.74,100.1a2.25,2.25,0,0,1-.89-.25l-11.1-9.71a1.25,1.25,0,1,1,1.64-1.89l11.1,9.58a1.23,1.23,0,0,1,.13,1.77A.84.84,0,0,1,194.74,100.1Z"/><path d="M165.46,106.78a1.75,1.75,0,0,1-.76-.25,1.23,1.23,0,0,1-.38-1.76l10.6-15.51a1.28,1.28,0,1,1,2.15,1.39l-10.6,15.5A1,1,0,0,1,165.46,106.78Z"/><path d="M184.39,110.94H171.14a1.26,1.26,0,0,1,0-2.52h13.25a1.26,1.26,0,1,1,0,2.52Z"/><path d="M179.09,114.35h-8a1.26,1.26,0,0,1,0-2.52h8a1.26,1.26,0,0,1,0,2.52Z"/><path d="M201.68,84.47H188.43a1.26,1.26,0,1,1,0-2.52h13.25a1.19,1.19,0,0,1,1.26,1.26A1.27,1.27,0,0,1,201.68,84.47Z"/><path d="M196.38,87.87h-7.95a1.26,1.26,0,1,1,0-2.52h7.95a1.2,1.2,0,0,1,1.26,1.26A1.26,1.26,0,0,1,196.38,87.87Z"/><path d="M221.61,104.39H208.36a1.26,1.26,0,0,1,0-2.52h13.25a1.19,1.19,0,0,1,1.27,1.26A1.27,1.27,0,0,1,221.61,104.39Z"/><path d="M216.31,107.67h-7.95a1.27,1.27,0,0,1,0-2.53h7.95a1.2,1.2,0,0,1,1.27,1.26A1.27,1.27,0,0,1,216.31,107.67Z"/><path d="M247.36,72.62H234.11a1.26,1.26,0,0,1,0-2.52h13.25a1.19,1.19,0,0,1,1.26,1.26A1.27,1.27,0,0,1,247.36,72.62Z"/><path d="M242.06,75.9h-7.95a1.27,1.27,0,0,1,0-2.53h7.95a1.19,1.19,0,0,1,1.26,1.26A1.27,1.27,0,0,1,242.06,75.9Z"/><g id="a240ab3b-1013-4506-87f0-67f4ddc24a08" data-name="Group-19"><ellipse class="e0dac7a4-8910-41f4-81da-8afc3bd7ed80" cx="272.72" cy="55.08" rx="8.83" ry="8.83"/><g id="bfb686f3-b9e5-4843-9f73-e4013d12d905" data-name="Group-2"><path class="e91e0b52-8275-4235-9f28-e082dd9200ef" d="M275.08,68.5l-.15-.66a3.54,3.54,0,0,0-2.45-2.67,3.48,3.48,0,0,0-3.49.91,3.53,3.53,0,0,0-.7,1l-.28.62-.62-.29a13.63,13.63,0,0,1-3.18-2L263.7,65l.41-.53a3.6,3.6,0,0,0,.41-3.77,3.5,3.5,0,0,0-3.17-2,3.44,3.44,0,0,0-.78.08l-.64.15-.16-.62a14.24,14.24,0,0,1-.42-3.73v-.67H260a3.55,3.55,0,0,0,3.23-2.23,3.63,3.63,0,0,0-.78-3.89l-.3-.26-.51-.41.4-.54a14,14,0,0,1,1.22-1.45,11.9,11.9,0,0,1,1.42-1.24l.52-.41.41.52c.09.1.17.2.27.3a3.48,3.48,0,0,0,3.83.77,3.58,3.58,0,0,0,2.17-3.31v-.67h.65a13.73,13.73,0,0,1,3.67.4l.65.16-.14.66a3.57,3.57,0,0,0,.68,3,3.49,3.49,0,0,0,5,.55l.5-.42.44.51a14.24,14.24,0,0,1,2,3.21l.28.62-.61.29a3.51,3.51,0,0,0-1,.71,3.61,3.61,0,0,0-.88,3.54,3.54,3.54,0,0,0,2.64,2.48l.65.14-.13.67A14.18,14.18,0,0,1,285,61.18l-.3.62-.61-.28a3.48,3.48,0,0,0-4.5,1.33,3.58,3.58,0,0,0-.18,3.46l.28.62-.58.31a13.6,13.6,0,0,1-3.49,1.25Zm-3.54-4.09a4.07,4.07,0,0,1,2.95,1.24,4.38,4.38,0,0,1,1.15,2.11h0a12.9,12.9,0,0,0,3.3-1.19h0a4.31,4.31,0,0,1,.8-4.87,4.15,4.15,0,0,1,4.78-.84,13.5,13.5,0,0,0,1.15-3.4,4.18,4.18,0,0,1-2.06-1.14,4.3,4.3,0,0,1,0-6,4,4,0,0,1,1.16-.84,13.37,13.37,0,0,0-1.91-3.05h0a4.14,4.14,0,0,1-4.84.31,4.29,4.29,0,0,1-1.88-4.54h0a13.6,13.6,0,0,0-3.48-.37,4.24,4.24,0,0,1-4.19,4.26,4.19,4.19,0,0,1-3-1.24q-.17-.18-.3-.36a12.85,12.85,0,0,0-1.35,1.2,11.77,11.77,0,0,0-1.16,1.38l.33.3A4.32,4.32,0,0,1,264,52a4.21,4.21,0,0,1-3.89,2.64,13.52,13.52,0,0,0,.4,3.53,4.15,4.15,0,0,1,4.5,1.89,4.33,4.33,0,0,1-.29,4.94h0a13.61,13.61,0,0,0,3,1.93,4.57,4.57,0,0,1,.84-1.25A4.07,4.07,0,0,1,271.54,64.41Z"/><path class="e91e0b52-8275-4235-9f28-e082dd9200ef" d="M272.87,61.64a6.86,6.86,0,1,1,6.77-6.86,6.81,6.81,0,0,1-6.77,6.86Zm0-13a6.13,6.13,0,1,0,6.06,6.13,6.09,6.09,0,0,0-6.06-6.13Z"/></g></g><g id="baf4627b-1aec-427c-ac65-c0a4fb81ad8e" data-name="Group-12"><path class="f0d4b75f-8cc7-4cc4-8380-80652d7150ba" d="M258.16,57.52c-8.4,0-15.22-6.53-15.22-14.58s6.81-14.57,15.21-14.57,15.22,6.51,15.23,14.56-6.82,14.58-15.22,14.59Z"/><path class="e88a9a3b-440c-454b-922c-b6675052c21d" d="M255.25,50.66a.4.4,0,0,1-.28-.12l-6.84-7a.43.43,0,0,1,0-.58.39.39,0,0,1,.29-.13.39.39,0,0,1,.28.13l6.55,6.68,12.36-12.6a.41.41,0,0,1,.58.58L255.54,50.54a.4.4,0,0,1-.29.12Z"/></g><path d="M145.24,119.81c-1.43-2.43-6.75-10.13-17.14-10.13s-15.7,7.7-17.13,10.13a1.67,1.67,0,0,0,0,2.44c1.43,2.43,6.75,10.13,17.13,10.13s15.71-7.7,17.14-10.13a1.67,1.67,0,0,0,0-2.44Zm-17.14,9.88c-8.87,0-13.53-6.41-14.88-8.65,1.36-2.22,6.07-8.68,14.88-8.68S141.64,118.78,143,121C141.63,123.24,136.92,129.69,128.1,129.69Z"/><path d="M128.1,113.46a7.57,7.57,0,1,0,7.58,7.57A7.58,7.58,0,0,0,128.1,113.46Zm0,12.57a5,5,0,1,1,5-5A5,5,0,0,1,128.1,126Z"/><path d="M128.1,104.64a1.24,1.24,0,0,0,1.27-1.21V99.55a1.27,1.27,0,0,0-2.53,0v3.88A1.24,1.24,0,0,0,128.1,104.64Z"/><path d="M139.39,108.42a1.16,1.16,0,0,0,.83-.34l2.68-2.68a1.18,1.18,0,0,0,0-1.67,1.17,1.17,0,0,0-1.67,0l-2.68,2.67a1.18,1.18,0,0,0,.84,2Z"/><path d="M114.72,108.08a1.2,1.2,0,0,0,.84.34,1.17,1.17,0,0,0,.84-.34,1.2,1.2,0,0,0,0-1.68l-2.68-2.67a1.18,1.18,0,1,0-1.67,1.67Z"/></g><circle id="ab27b6f2-2215-4c9b-9a13-b70ebcb79607" data-name="Oval-Copy-22" class="b8328d6d-2e5f-422d-848b-b1f2f0001ae2" cx="34.21" cy="47" r="16"/><circle id="b7abbade-d385-41cc-b7fc-2df3f44cf681" data-name="Oval-Copy-23" class="b8328d6d-2e5f-422d-848b-b1f2f0001ae2" cx="91.21" cy="73" r="23"/></g></g></svg>