<svg id="afb6d41b-984d-4141-abbd-c0ffca295283" data-name="Livello 1" xmlns="http://www.w3.org/2000/svg" viewBox="0 0 294 145"><defs><style>.b8490b58-e6e6-44d2-9379-ac863fb74f91{fill:#eef4ef;}.a47c5449-9526-4ec1-a78c-678a56b9778e{fill:#d2ebd7;}.a371d96f-e121-4be4-9f66-0d4b892e907c{fill:#297a38;}.a4fcada3-7bd3-4273-9599-2aa452cc3d54,.f5805e7f-768c-4e88-9039-a164dce24dda{fill:none;stroke:#000;stroke-width:2.52px;}.f5805e7f-768c-4e88-9039-a164dce24dda{stroke-linecap:round;stroke-linejoin:round;}</style></defs><title>info-2</title><g id="b39aa8b1-8ef0-4cd3-a5a7-161d6123439c" data-name="Symbols"><g id="ef8dcd60-c287-42eb-b9a7-7fa782a4b256" data-name="Artboard"><ellipse class="b8490b58-e6e6-44d2-9379-ac863fb74f91" cx="152.19" cy="63.04" rx="63.05" ry="63.04"/><g id="f1afc21a-c909-4979-a2d2-ec9bdf1c4c41" data-name="Group-11"><rect class="a47c5449-9526-4ec1-a78c-678a56b9778e" x="68.97" y="52.95" width="105.92" height="79.43" rx="2.52"/><path d="M181.2,124.81a3.72,3.72,0,0,1-3.79,3.78H76.53a3.71,3.71,0,0,1-3.78-3.78V50.43a3.71,3.71,0,0,1,3.78-3.78H177.41a3.72,3.72,0,0,1,3.79,3.78Zm-2.53-74.38a1.19,1.19,0,0,0-1.26-1.26H76.53a1.19,1.19,0,0,0-1.26,1.26v74.38a1.19,1.19,0,0,0,1.26,1.26H177.41a1.19,1.19,0,0,0,1.26-1.26Z"/><path d="M179.94,60.51H75.27a1.26,1.26,0,1,1,0-2.52H179.94a1.26,1.26,0,0,1,0,2.52Z"/><circle cx="80.19" cy="53.08" r="1.64"/><circle cx="95.45" cy="90.9" r="1.64"/><circle cx="86.24" cy="53.08" r="1.64"/><circle cx="92.17" cy="53.08" r="1.64"/><path d="M111.84,103.38a1.19,1.19,0,0,1-1.26,1.26H90.4a1.19,1.19,0,0,1-1.26-1.26V83.21A1.19,1.19,0,0,1,90.4,82h20.18a1.19,1.19,0,0,1,1.26,1.26Zm-20.17-1.26h17.65V84.47H91.67Z"/><path d="M90.66,103.88a1.17,1.17,0,0,1-.89-.37,1.23,1.23,0,0,1,0-1.77l5.17-5.17a1.23,1.23,0,0,1,1.77,0l5,5a1.25,1.25,0,1,1-1.76,1.77l-4.16-4.16-4.29,4.29A1.35,1.35,0,0,1,90.66,103.88Z"/><path d="M110.2,103.88a1.13,1.13,0,0,1-.88-.37l-7.44-7.44L98.1,99.85a1.25,1.25,0,0,1-1.77-1.77L101,93.42a1.22,1.22,0,0,1,1.76,0l8.33,8.32a1.23,1.23,0,0,1,0,1.77A1.17,1.17,0,0,1,110.2,103.88Z"/><path d="M106.8,110.94H90.4a1.26,1.26,0,0,1,0-2.52h16.4a1.26,1.26,0,1,1,0,2.52Z"/><path d="M144.63,71.86h-34a1.26,1.26,0,1,1,0-2.52h34.05a1.26,1.26,0,1,1,0,2.52Z"/><path d="M137.06,75.64H116.89a1.26,1.26,0,1,1,0-2.52h20.17a1.26,1.26,0,1,1,0,2.52Z"/><path d="M100.49,114.73H90.4a1.27,1.27,0,0,1,0-2.53h10.09a1.27,1.27,0,0,1,0,2.53Z"/><circle cx="121.93" cy="90.9" r="1.64"/><path d="M138.32,103.38a1.19,1.19,0,0,1-1.26,1.26H116.89a1.19,1.19,0,0,1-1.27-1.26V83.21A1.19,1.19,0,0,1,116.89,82h20.17a1.19,1.19,0,0,1,1.26,1.26Zm-20.17-1.26H135.8V84.47H118.15Z"/><path d="M117.14,103.88a1.13,1.13,0,0,1-.88-.37,1.22,1.22,0,0,1,0-1.77l5.17-5.17a1.22,1.22,0,0,1,1.76,0l5,5a1.25,1.25,0,1,1-1.76,1.77l-4.16-4.16L118,103.51A1.35,1.35,0,0,1,117.14,103.88Z"/><path d="M136.68,103.88a1.15,1.15,0,0,1-.88-.37l-7.44-7.44-3.78,3.78a1.25,1.25,0,1,1-1.77-1.77l4.67-4.66a1.22,1.22,0,0,1,1.76,0l8.33,8.32a1.23,1.23,0,0,1,0,1.77A1.17,1.17,0,0,1,136.68,103.88Z"/><path d="M133.28,110.94H116.89a1.26,1.26,0,1,1,0-2.52h16.39a1.26,1.26,0,0,1,0,2.52Z"/><path d="M127,114.73H116.89a1.27,1.27,0,1,1,0-2.53H127a1.27,1.27,0,0,1,0,2.53Z"/><circle cx="148.41" cy="90.9" r="1.64"/><path d="M164.8,103.38a1.19,1.19,0,0,1-1.26,1.26H143.37a1.19,1.19,0,0,1-1.26-1.26V83.21A1.19,1.19,0,0,1,143.37,82h20.17a1.19,1.19,0,0,1,1.26,1.26Zm-20.17-1.26h17.65V84.47H144.63Z"/><path d="M143.62,103.88a1.13,1.13,0,0,1-.88-.37,1.22,1.22,0,0,1,0-1.77l5.17-5.17a1.22,1.22,0,0,1,1.76,0l5.05,5a1.25,1.25,0,0,1-1.77,1.77l-4.16-4.16-4.29,4.29A1.35,1.35,0,0,1,143.62,103.88Z"/><path d="M163.16,103.88a1.15,1.15,0,0,1-.88-.37l-7.44-7.44-3.78,3.78a1.25,1.25,0,0,1-1.77-1.77L154,93.42a1.22,1.22,0,0,1,1.76,0l8.33,8.32a1.23,1.23,0,0,1,0,1.77A1.16,1.16,0,0,1,163.16,103.88Z"/><path d="M159.76,110.94H143.37a1.26,1.26,0,0,1,0-2.52h16.39a1.26,1.26,0,1,1,0,2.52Z"/><path d="M153.45,114.73H143.37a1.27,1.27,0,0,1,0-2.53h10.08a1.27,1.27,0,1,1,0,2.53Z"/><ellipse class="a371d96f-e121-4be4-9f66-0d4b892e907c" cx="98.77" cy="66.82" rx="3.83" ry="3.78"/><path class="a371d96f-e121-4be4-9f66-0d4b892e907c" d="M93.4,79.33c-1.07,0-2-.72-1.66-1.85a7.21,7.21,0,0,1,14.06,0c.34,1.13-.6,1.85-1.66,1.85-1.48,0-3.76.1-5.37.1S95,79.33,93.4,79.33Z"/></g><g id="ea29f67b-2a7c-4d45-8aaf-9c795573a70e" data-name="Group-26"><ellipse class="a4fcada3-7bd3-4273-9599-2aa452cc3d54" cx="180.54" cy="52.32" rx="15.76" ry="15.76"/><path id="a89bf5b7-a36b-4194-ad54-1dc9211cdd72" data-name="Line-2" class="f5805e7f-768c-4e88-9039-a164dce24dda" d="M193.15,63,207,76.9"/></g><circle id="ac8c652c-e10b-4564-93a4-65a013fe20c8" data-name="Oval-Copy-18" class="b8490b58-e6e6-44d2-9379-ac863fb74f91" cx="236.79" cy="49" r="13"/><circle id="b47e2373-357d-4305-b29f-53d4a572f64f" data-name="Oval-Copy-19" class="b8490b58-e6e6-44d2-9379-ac863fb74f91" cx="276.79" cy="86" r="13"/><circle id="e4f99df1-1a9c-4ad7-a5c5-18d0177acd10" data-name="Oval-Copy-16" class="b8490b58-e6e6-44d2-9379-ac863fb74f91" cx="27.79" cy="40" r="23"/></g></g></svg>