<svg id="e4f9a2e5-9b18-42c2-a321-9309a67b7c53" data-name="Livello 1" xmlns="http://www.w3.org/2000/svg" xmlns:xlink="http://www.w3.org/1999/xlink" viewBox="0 0 512 512"><defs><style>.a88af0a7-b5ab-4859-a1ba-10d6925d4457,.a9bad5a8-e67c-4213-8e6e-8cd529fcfa60,.e0a3441d-b489-46a0-90d9-136ab32d62c4{fill:none;}.a88af0a7-b5ab-4859-a1ba-10d6925d4457,.e0a3441d-b489-46a0-90d9-136ab32d62c4{clip-path:url(#f75a5e83-6dee-4cf6-a101-080157ad21b3);}.e0a3441d-b489-46a0-90d9-136ab32d62c4{clip-rule:evenodd;}.b53cba9a-bbe8-4014-af34-ff75d0d7763e{clip-path:url(#ec85b061-acd6-4bdf-8deb-24e19925f62a);}.fbe30ea4-3f68-43eb-9336-916a0c60bcf7{fill:#edf2ed;}.b0c344ba-752d-4b8f-8179-265513b69f8e{clip-path:url(#ae4ce4ad-1bb7-485e-bf40-5909f26eb644);}.e2fb48aa-0110-46b9-9042-5808771c7492{fill:#3f763f;}.a7e265be-e18a-4880-95c9-14b01409ac15{clip-path:url(#a0388f62-25d8-4351-9feb-264f15e78769);}.a452edc5-1c3a-47af-accc-bb54f8974abe{clip-path:url(#e82465d1-4608-44da-b3b7-c92a96712691);}.f52df535-f7a4-4784-a105-fc2afcb37fa3{clip-path:url(#fd771d31-a2ab-4559-b034-33c8502db4b0);}.f6ec69f3-f65f-41f9-98bd-fbe463346b78{clip-path:url(#f3e0ca5d-f53e-4355-a6f6-8b46cac3f970);}.aa08792c-5699-489c-9d0f-dc7494570cb4{clip-path:url(#e538e671-2dd0-462e-814e-1187e3b80b5b);}.b638565c-d0af-461f-98f3-8697092b4c99{clip-path:url(#a7c086ec-c08c-4be2-b2f6-c769d28b9e37);}.a9550c4e-0669-4a8e-8cf8-cdfbcbbdd3f2{clip-path:url(#a2f9bfed-74c6-4358-ad77-66e258d707b0);}.a3bea953-8332-44ec-a7a5-17aafb32e3b8{clip-path:url(#be52e0f9-d836-48f5-b823-dc4de384f755);}.a1d90a25-18f3-4779-8fd3-8a884ae28d05{clip-path:url(#a111275e-2137-4e38-adfb-e83403986685);}.b855e6eb-cb6d-4528-a112-4f6272fc5409{clip-path:url(#bbdc15b3-0fdb-4b36-9641-24396f046923);}.aa4417bc-27f8-4838-aed1-0a8403d072ea{clip-path:url(#aaba237c-ad2d-4866-bc85-0879d86785be);}</style><clipPath id="f75a5e83-6dee-4cf6-a101-080157ad21b3"><rect class="a9bad5a8-e67c-4213-8e6e-8cd529fcfa60" x="23.26" y="36.29" width="465.49" height="439.42"/></clipPath><clipPath id="ec85b061-acd6-4bdf-8deb-24e19925f62a"><path class="e0a3441d-b489-46a0-90d9-136ab32d62c4" d="M209.45,408.68c102.83,0,186.2-83.36,186.2-186.2S312.28,36.29,209.45,36.29,23.26,119.65,23.26,222.48s83.36,186.2,186.19,186.2Z"/></clipPath><clipPath id="ae4ce4ad-1bb7-485e-bf40-5909f26eb644"><rect class="a9bad5a8-e67c-4213-8e6e-8cd529fcfa60" x="339.79" y="200.14" width="96.82" height="55.86"/></clipPath><clipPath id="a0388f62-25d8-4351-9feb-264f15e78769"><rect class="a9bad5a8-e67c-4213-8e6e-8cd529fcfa60" x="205.73" y="200.14" width="96.82" height="122.89"/></clipPath><clipPath id="e82465d1-4608-44da-b3b7-c92a96712691"><path class="a88af0a7-b5ab-4859-a1ba-10d6925d4457" d="M461.72,216.24H450.9V140.56H191.43v75.68H180.62a27.06,27.06,0,0,0-27,27v173a27.07,27.07,0,0,0,27,27h70.27V464.9H240.08v10.81H402.25V464.9H391.44V443.28h70.28a27.06,27.06,0,0,0,27-27v-173a27.05,27.05,0,0,0-27-27ZM202,196.42H440.33v156.4H202V196.42Zm238.33-44.69v33.52H202V151.73ZM380.75,464.54H261.59V442.19H380.75v22.35ZM461.39,431H180.94a16.19,16.19,0,0,1-16.18-16.17v-5.39H450.61V398.68H164.76V242.38a16.19,16.19,0,0,1,16.18-16.17h10.79V361H450.61V226.21h10.78a16.19,16.19,0,0,1,16.18,16.17v156.3H461.39v10.78h16.18v5.39A16.19,16.19,0,0,1,461.39,431Z"/></clipPath><clipPath id="fd771d31-a2ab-4559-b034-33c8502db4b0"><path class="a88af0a7-b5ab-4859-a1ba-10d6925d4457" d="M213.18,341.65H317.44V207.59H213.18V341.65Zm11.17-122.89h81.92V330.48H224.35V218.76Z"/></clipPath><clipPath id="f3e0ca5d-f53e-4355-a6f6-8b46cac3f970"><path class="a88af0a7-b5ab-4859-a1ba-10d6925d4457" d="M324.89,274.62H429.16V203.87H324.89v70.75ZM336.06,215H418v48.41H336.06V215Z"/></clipPath><clipPath id="e538e671-2dd0-462e-814e-1187e3b80b5b"><rect class="a9bad5a8-e67c-4213-8e6e-8cd529fcfa60" x="417.99" y="329.76" width="11.17" height="10.81"/></clipPath><clipPath id="a7c086ec-c08c-4be2-b2f6-c769d28b9e37"><rect class="a9bad5a8-e67c-4213-8e6e-8cd529fcfa60" x="324.89" y="329.76" width="81.93" height="10.81"/></clipPath><clipPath id="a2f9bfed-74c6-4358-ad77-66e258d707b0"><rect class="a9bad5a8-e67c-4213-8e6e-8cd529fcfa60" x="324.89" y="308.13" width="104.27" height="10.81"/></clipPath><clipPath id="be52e0f9-d836-48f5-b823-dc4de384f755"><rect class="a9bad5a8-e67c-4213-8e6e-8cd529fcfa60" x="324.89" y="286.51" width="104.27" height="10.81"/></clipPath><clipPath id="a111275e-2137-4e38-adfb-e83403986685"><path class="e0a3441d-b489-46a0-90d9-136ab32d62c4" d="M220.62,177.8a7.45,7.45,0,1,0-7.44-7.45,7.45,7.45,0,0,0,7.44,7.45Z"/></clipPath><clipPath id="bbdc15b3-0fdb-4b36-9641-24396f046923"><path class="e0a3441d-b489-46a0-90d9-136ab32d62c4" d="M243,177.8a7.45,7.45,0,1,0-7.45-7.45A7.45,7.45,0,0,0,243,177.8Z"/></clipPath><clipPath id="aaba237c-ad2d-4866-bc85-0879d86785be"><path class="e0a3441d-b489-46a0-90d9-136ab32d62c4" d="M265.31,177.8a7.45,7.45,0,1,0-7.45-7.45,7.46,7.46,0,0,0,7.45,7.45Z"/></clipPath></defs><title>info-6</title><g class="b53cba9a-bbe8-4014-af34-ff75d0d7763e"><rect class="fbe30ea4-3f68-43eb-9336-916a0c60bcf7" x="4.64" y="17.67" width="409.63" height="409.63"/></g><g class="b0c344ba-752d-4b8f-8179-265513b69f8e"><rect class="e2fb48aa-0110-46b9-9042-5808771c7492" x="321.17" y="181.52" width="134.06" height="93.1"/></g><g class="a7e265be-e18a-4880-95c9-14b01409ac15"><rect class="e2fb48aa-0110-46b9-9042-5808771c7492" x="187.11" y="181.52" width="134.06" height="160.13"/></g><g class="a452edc5-1c3a-47af-accc-bb54f8974abe"><rect x="134.97" y="121.94" width="372.39" height="372.39"/></g><g class="f52df535-f7a4-4784-a105-fc2afcb37fa3"><rect x="194.56" y="188.97" width="141.51" height="171.3"/></g><g class="f6ec69f3-f65f-41f9-98bd-fbe463346b78"><rect x="306.27" y="185.25" width="141.51" height="107.99"/></g><g class="aa08792c-5699-489c-9d0f-dc7494570cb4"><rect x="399.37" y="311.14" width="48.41" height="48.05"/></g><g class="b638565c-d0af-461f-98f3-8697092b4c99"><rect x="306.27" y="311.14" width="119.16" height="48.05"/></g><g class="a9550c4e-0669-4a8e-8cf8-cdfbcbbdd3f2"><rect x="306.27" y="289.52" width="141.51" height="48.05"/></g><g class="a3bea953-8332-44ec-a7a5-17aafb32e3b8"><rect x="306.27" y="267.89" width="141.51" height="48.05"/></g><g class="a1d90a25-18f3-4779-8fd3-8a884ae28d05"><rect x="194.56" y="144.28" width="52.13" height="52.13"/></g><g class="b855e6eb-cb6d-4528-a112-4f6272fc5409"><rect x="216.9" y="144.28" width="52.13" height="52.13"/></g><g class="aa4417bc-27f8-4838-aed1-0a8403d072ea"><rect x="239.24" y="144.28" width="52.13" height="52.13"/></g></svg>